name C:/MyDriveSym/Projects/mobilecap/Data\Session20210820_0002\mocap\ForceDataProcessed\walkingTS3_forces.mot
datacolumns 19
datarows 14
range 0.00000000 0.00650000
endheader 
time	R_ground_force_vx	R_ground_force_vy	R_ground_force_vz	R_ground_force_px	R_ground_force_py	R_ground_force_pz	R_ground_torque_x	R_ground_torque_y	R_ground_torque_z	L_ground_force_vx	L_ground_force_vy	L_ground_force_vz	L_ground_force_px	L_ground_force_py	L_ground_force_pz	L_ground_torque_x	L_ground_torque_y	L_ground_torque_z	
          0.00000000	          1.55279600	         64.50350000	          4.10003500	          0.08150800	          0.00600000	         -0.15499500	          0.00000000	          0.26919700	          0.00000000	          0.00000000	          0.00000000	          0.00000000	          0.72614900	          0.00000000	         -0.24789500	          0.00000000	          0.00000000	          0.00000000	
          0.00050000	          1.47484900	         65.78497400	          4.11467300	          0.08150800	          0.00600000	         -0.15499500	          0.00000000	          0.27098600	          0.00000000	          0.00000000	          0.00000000	          0.00000000	          0.72614900	          0.00000000	         -0.24789500	          0.00000000	          0.00000000	          0.00000000	
          0.00100000	          1.39461500	         67.07899500	          4.12896700	          0.08150800	          0.00600000	         -0.15499500	          0.00000000	          0.27281200	          0.00000000	          0.00000000	          0.00000000	          0.00000000	          0.72614900	          0.00000000	         -0.24789500	          0.00000000	          0.00000000	          0.00000000	
          0.00150000	          1.31206500	         68.38558200	          4.14290700	          0.08150800	          0.00600000	         -0.15499500	          0.00000000	          0.27467400	          0.00000000	          0.00000000	          0.00000000	          0.00000000	          0.72614900	          0.00000000	         -0.24789500	          0.00000000	          0.00000000	          0.00000000	
          0.00200000	          1.22717200	         69.70475300	          4.15648500	          0.08202700	          0.00600000	         -0.15495200	          0.00000000	          0.27656900	          0.00000000	          0.00000000	          0.00000000	          0.00000000	          0.72614900	          0.00000000	         -0.24789500	          0.00000000	          0.00000000	          0.00000000	
          0.00250000	          1.13990700	         71.03652400	          4.16969300	          0.08253500	          0.00600000	         -0.15490900	          0.00000000	          0.27849700	          0.00000000	          0.00000000	          0.00000000	          0.00000000	          0.72614900	          0.00000000	         -0.24789500	          0.00000000	          0.00000000	          0.00000000	
          0.00300000	          1.05024100	         72.38091000	          4.18252200	          0.08303200	          0.00600000	         -0.15486700	          0.00000000	          0.28045600	          0.00000000	          0.00000000	          0.00000000	          0.00000000	          0.72614900	          0.00000000	         -0.24789500	          0.00000000	          0.00000000	          0.00000000	
          0.00350000	          0.95814600	         73.73792600	          4.19496300	          0.08351900	          0.00600000	         -0.15482700	          0.00000000	          0.28244600	          0.00000000	          0.00000000	          0.00000000	          0.00000000	          0.72614900	          0.00000000	         -0.24789500	          0.00000000	          0.00000000	          0.00000000	
          0.00400000	          0.86359200	         75.10758400	          4.20700600	          0.08399700	          0.00600000	         -0.15478700	          0.00000000	          0.28446500	          0.00000000	          0.00000000	          0.00000000	          0.00000000	          0.72614900	          0.00000000	         -0.24789500	          0.00000000	          0.00000000	          0.00000000	
          0.00450000	          0.76655100	         76.48989300	          4.21864300	          0.08446400	          0.00600000	         -0.15474700	          0.00000000	          0.28651200	          0.00000000	          0.00000000	          0.00000000	          0.00000000	          0.72614900	          0.00000000	         -0.24789500	          0.00000000	          0.00000000	          0.00000000	
          0.00500000	          0.66699300	         77.88486400	          4.22986400	          0.08492200	          0.00600000	         -0.15470900	          0.00000000	          0.28858700	          0.00000000	          0.00000000	          0.00000000	          0.00000000	          0.72614900	          0.00000000	         -0.24789500	          0.00000000	          0.00000000	          0.00000000	
          0.00550000	          0.56488900	         79.29250500	          4.24066000	          0.08537200	          0.00600000	         -0.15467100	          0.00000000	          0.29068800	          0.00000000	          0.00000000	          0.00000000	          0.00000000	          0.72614900	          0.00000000	         -0.24789500	          0.00000000	          0.00000000	          0.00000000	
          0.00600000	          0.46021000	         80.71282000	          4.25102100	          0.08581200	          0.00600000	         -0.15463400	          0.00000000	          0.29281400	          0.00000000	          0.00000000	          0.00000000	          0.00000000	          0.72614900	          0.00000000	         -0.24789500	          0.00000000	          0.00000000	          0.00000000	
          0.00650000	          0.35292500	         82.14581600	          4.26093800	          0.08624500	          0.00600000	         -0.15459700	          0.00000000	          0.29496500	          0.00000000	          0.00000000	          0.00000000	          0.00000000	          0.72614900	          0.00000000	         -0.24789500	          0.00000000	          0.00000000	          0.00000000	
